<svg id="Layer_1" data-name="Layer 1" xmlns="http://www.w3.org/2000/svg" viewBox="0 0 40 40"><defs><style>.cls-1{fill:#231f20;}.cls-2{fill:#fff;}</style></defs><title>Finance_Icon</title><path class="cls-1" d="M3.14,6V19.76A19.56,19.56,0,0,0,14.32,37.38L19.87,40l5.7-2.64A19.54,19.54,0,0,0,36.86,19.68V6Z"/><rect class="cls-1" x="3.19" y="0.02" width="33.62" height="3.72"/><path class="cls-2" d="M19.44,28.45a5.61,5.61,0,0,1-4.23-2.12L16.7,24.8a4.52,4.52,0,0,0,2.87,1.59V22.48l-.43-.08c-2.48-.43-3.52-1.89-3.52-3.74,0-2.12,1.4-3.5,3.82-3.78v-2H21.3v1.95a5.16,5.16,0,0,1,3.59,1.85l-1.49,1.53A3.56,3.56,0,0,0,21.16,17v3.59l.47.08c2.46.45,3.51,1.83,3.51,3.7,0,2.12-1.38,3.65-3.86,4v2H19.44Zm.13-8.2V16.92c-1.1.15-1.63.72-1.63,1.66S18.42,20,19.58,20.25Zm1.59,2.53v3.59a1.78,1.78,0,0,0,1.68-1.87C22.85,23.5,22.34,23,21.16,22.78Z"/></svg>